PathFileType	4	(X/Y/Z)	/Users/giacomo/dev/rowing-video-analysis/sports2d_app/runs/gb8_20260203_210816/sports2d/input_Sports2D/input_Sports2D_m_person00.trc
DataRate	CameraRate	NumFrames	NumMarkers	Units	OrigDataRate	OrigDataStartFrame	OrigNumFrames
50.0	50.0	3	133	m	50.0	55	440
Frame#	Time	RHip			RKnee			RAnkle			RBigToe			RSmallToe			RHeel			LHip			LKnee			LAnkle			LBigToe			LSmallToe			LHeel			Nose			REye			LEye			REar			LEar			RShoulder			RElbow			RWrist			RThumb1			RThumb			RThumb3			RThumb4			RIndex			RIndex2			RIndex3			RIndex4			RMiddle1			RMiddle2			RMiddle3			RMiddle4			RRing1			RRing2			RRing3			RRing4			RPinky			RPinky2			RPinky3			RPinky4			LShoulder			LElbow			LWrist			LThumb1			LThumb			LThumb3			LThumb4			LIndex			LIndex2			LIndex3			LIndex4			LMiddle1			LMiddle2			LMiddle3			LMiddle4			LRing1			LRing2			LRing3			LRing4			LPinky			LPinky2			LPinky3			LPinky4			Jaw1			Jaw2			Jaw3			Jaw4			Jaw5			Jaw6			Jaw7			Jaw8			Jaw9			Jaw10			Jaw11			Jaw12			Jaw13			Jaw14			Jaw15			Jaw16			Jaw17			EyebrowR1			EyebrowR2			EyebrowR3			EyebrowR4			EyebrowR5			EyebrowL1			EyebrowL2			EyebrowL3			EyebrowL4			EyebrowL5			Nose1			Nose2			Nose3			Nose4			Nose5			Nose6			Nose7			Nose8			Nose9			REye1			REye2			REye3			REye4			REye5			REye6			LEye1			LEye2			LEye3			LEye4			LEye5			LEye6			Mouth1			Mouth2			Mouth3			Mouth4			Mouth5			Mouth6			Mouth7			Mouth8			Mouth9			Mouth10			Mouth11			Mouth12			Mouth13			Mouth14			Mouth15			Mouth16			Mouth17			Mouth18			Mouth19			Mouth20			Hip			Neck			
		X1	Y1	Z1	X2	Y2	Z2	X3	Y3	Z3	X4	Y4	Z4	X5	Y5	Z5	X6	Y6	Z6	X7	Y7	Z7	X8	Y8	Z8	X9	Y9	Z9	X10	Y10	Z10	X11	Y11	Z11	X12	Y12	Z12	X13	Y13	Z13	X14	Y14	Z14	X15	Y15	Z15	X16	Y16	Z16	X17	Y17	Z17	X18	Y18	Z18	X19	Y19	Z19	X20	Y20	Z20	X21	Y21	Z21	X22	Y22	Z22	X23	Y23	Z23	X24	Y24	Z24	X25	Y25	Z25	X26	Y26	Z26	X27	Y27	Z27	X28	Y28	Z28	X29	Y29	Z29	X30	Y30	Z30	X31	Y31	Z31	X32	Y32	Z32	X33	Y33	Z33	X34	Y34	Z34	X35	Y35	Z35	X36	Y36	Z36	X37	Y37	Z37	X38	Y38	Z38	X39	Y39	Z39	X40	Y40	Z40	X41	Y41	Z41	X42	Y42	Z42	X43	Y43	Z43	X44	Y44	Z44	X45	Y45	Z45	X46	Y46	Z46	X47	Y47	Z47	X48	Y48	Z48	X49	Y49	Z49	X50	Y50	Z50	X51	Y51	Z51	X52	Y52	Z52	X53	Y53	Z53	X54	Y54	Z54	X55	Y55	Z55	X56	Y56	Z56	X57	Y57	Z57	X58	Y58	Z58	X59	Y59	Z59	X60	Y60	Z60	X61	Y61	Z61	X62	Y62	Z62	X63	Y63	Z63	X64	Y64	Z64	X65	Y65	Z65	X66	Y66	Z66	X67	Y67	Z67	X68	Y68	Z68	X69	Y69	Z69	X70	Y70	Z70	X71	Y71	Z71	X72	Y72	Z72	X73	Y73	Z73	X74	Y74	Z74	X75	Y75	Z75	X76	Y76	Z76	X77	Y77	Z77	X78	Y78	Z78	X79	Y79	Z79	X80	Y80	Z80	X81	Y81	Z81	X82	Y82	Z82	X83	Y83	Z83	X84	Y84	Z84	X85	Y85	Z85	X86	Y86	Z86	X87	Y87	Z87	X88	Y88	Z88	X89	Y89	Z89	X90	Y90	Z90	X91	Y91	Z91	X92	Y92	Z92	X93	Y93	Z93	X94	Y94	Z94	X95	Y95	Z95	X96	Y96	Z96	X97	Y97	Z97	X98	Y98	Z98	X99	Y99	Z99	X100	Y100	Z100	X101	Y101	Z101	X102	Y102	Z102	X103	Y103	Z103	X104	Y104	Z104	X105	Y105	Z105	X106	Y106	Z106	X107	Y107	Z107	X108	Y108	Z108	X109	Y109	Z109	X110	Y110	Z110	X111	Y111	Z111	X112	Y112	Z112	X113	Y113	Z113	X114	Y114	Z114	X115	Y115	Z115	X116	Y116	Z116	X117	Y117	Z117	X118	Y118	Z118	X119	Y119	Z119	X120	Y120	Z120	X121	Y121	Z121	X122	Y122	Z122	X123	Y123	Z123	X124	Y124	Z124	X125	Y125	Z125	X126	Y126	Z126	X127	Y127	Z127	X128	Y128	Z128	X129	Y129	Z129	X130	Y130	Z130	X131	Y131	Z131	X132	Y132	Z132	X133	Y133	Z133
55	1.1017268445839874	-1.3120191637143817	-0.013212416611911049	0.0301	-0.8630547443969523	-0.07563957927041046	0.129	-0.7295338124945704	-0.40821982016931513	0.023	-0.5625140991456494	-0.47444226508356996	0.2179	-0.6127342399069118	-0.4967280720371594	0.1804	-0.7386200092641586	-0.43054774420800623	-0.0119	-1.243524447113213	0.028061376514368894	0.0301	-0.867363689685289	-0.03195494879739737	0.129	-0.8646822645007666	-0.380211635192607	0.023	-0.6296040671835343	-0.3998210793874155	0.2179	-0.5970433878271836	-0.40244112186412706	0.1804	-1.062433913656189	-0.41205181132104673	-0.0119	-1.3774829655173817	0.6158100243746625	0.1076	-1.4120865789752723	0.6553603711830475	0.0702	-1.3940880692481927	0.6553844085159822	0.0702	-1.5364559024586018	0.6383154021060955	0.0	-1.504903872165373	0.6358883717905552	0.0	-1.5942279746637387	0.4117126679372604	-0.01275	-1.5775747991814524	0.1173929936429706	0.0702	-1.3427156663111544	0.08824111666288112	0.1076	-1.3238327962145464	0.11314989340845186	0.0	-1.298630638198831	0.1305291508639477	0.0106	-1.2757000390606807	0.14492431716806325	0.0	-1.2506824516840758	0.1414703620013469	0.0	-1.2846405557224034	0.15910916437539016	-0.0004	-1.2488250155600895	0.1638452388478687	0.0	-1.227833712506643	0.15352523549603803	0.0	-1.213107193160456	0.13850637775380148	0.0	-1.2783986984168387	0.1526743759602453	0.0	-1.2391799502721146	0.15581059659836083	0.0	-1.219946212576094	0.14438710336888005	0.0	-1.2096875891284218	0.13320343114662528	0.0	-1.2729195573226375	0.14013439862475838	0.0	-1.2368090414485848	0.14572880814131098	0.0	-1.2209725713092698	0.13638556157532747	0.0	-1.2109804963131423	0.1261427412163942	0.0	-1.2701819680569326	0.12389588848760752	-0.0009	-1.2409377862672408	0.13171665863000612	0.0	-1.2256250316904573	0.12583465654306186	0.0	-1.2182209877965504	0.11822583849024701	0.0	-1.4785862454049035	0.4212080756615807	-0.01275	-1.2962569667070436	0.14573690259363678	0.0702	-1.046486744535734	0.10806709423523632	0.1076	-1.0242108531492375	0.11550681632558323	0.0	-1.0100278879200264	0.12175488555524466	0.0106	-0.9880428606340049	0.11978090389101771	0.0	-0.9655558639144255	0.11191173422798179	0.0	-0.9779462972647905	0.14309533958990978	-0.0004	-0.9455307821994721	0.12955775094607785	0.0	-0.935542598822702	0.11560508768357991	0.0	-0.9305035168016677	0.10075370413709088	0.0	-0.9762020316923435	0.1315167222737148	0.0	-0.9460459246595302	0.12014213574007937	0.0	-0.9388643494771673	0.10964374683997234	0.0	-0.938558248511219	0.09763263206661112	0.0	-0.9757694168251659	0.12160710271435261	0.0	-0.9508974397180242	0.11306034741878986	0.0	-0.9440935429140478	0.10511223270728315	0.0	-0.9431858342795165	0.09553201206715829	0.0	-0.9758610529548071	0.11222921770080037	-0.0009	-0.9598633472405578	0.09962413603621434	0.0	-0.9540184604632738	0.09669930840998732	0.0	-0.952005014326971	0.09210607765635798	0.0	-1.5123305077637277	0.6633069046186032	0.0	-1.5118553350310655	0.6439624280666629	0.0	-1.506746983064313	0.62324585874742	0.0	-1.5029382794871478	0.6036140626478607	0.0	-1.49314232096152	0.5838125222493853	0.0	-1.481194455250147	0.5679767282619378	0.0	-1.4637609586500833	0.5543107599465317	0.0	-1.4453997725338228	0.5438133181935748	0.0	-1.428101533084679	0.5378819219825418	0.0	-1.413357378697082	0.5396167881561166	0.0	-1.4083676206641482	0.5522377835056899	0.0	-1.405557717841262	0.5691684252892055	0.0	-1.4020512771579972	0.5871035598391887	0.0	-1.4010095656335955	0.6065515236857034	0.0	-1.4017816420612266	0.6259411444008662	0.0	-1.403965098207862	0.6473643873756361	0.0	-1.4057850338920268	0.668512069940993	0.0	-1.442341059983137	0.678525945510892	0.0	-1.4335704582127697	0.6834637909597651	0.0	-1.4229537263183991	0.6851503179572254	0.0	-1.4138945838282975	0.6843920006958161	0.0	-1.4076150829601033	0.6833325018766307	0.0	-1.3996924552771277	0.681748840593444	0.0	-1.3978755887788992	0.6822436069251441	0.0	-1.3977766379244299	0.6828890807212876	0.0	-1.3965949114312588	0.6820904702505072	0.0	-1.3966267140339805	0.6806247861242245	0.0	-1.4045023449630345	0.6630033633599998	0.0	-1.397558466465242	0.6490573126882977	0.0	-1.390513442240449	0.6372596731880038	0.0	-1.3838174330885689	0.6273095955862924	0.0	-1.406696359362199	0.6163472571918722	0.0	-1.4036350481132571	0.6138741815246301	0.0	-1.398568411319986	0.6132054951228647	0.0	-1.392948221145043	0.6147694702168431	0.0	-1.3885042481129437	0.6173651264030136	0.0	-1.434418429220464	0.6621155990301344	0.0	-1.4271481956724046	0.6650891865814017	0.0	-1.421365996754397	0.6661613823766881	0.0	-1.4185391887431562	0.6618260636078865	0.0	-1.423098014097455	0.6587960264292821	0.0	-1.4285530939427211	0.6593115547287179	0.0	-1.4038068413942832	0.6629798473540958	0.0	-1.4020599983301767	0.6649292446195767	0.0	-1.400236412192324	0.664946725131484	0.0	-1.4002438893918936	0.6629763665613746	0.0	-1.401125588934375	0.6613586168314435	0.0	-1.4024260701584552	0.6614049621259299	0.0	-1.4240763760368138	0.5874542248282834	0.0	-1.4112823101719072	0.5914987590107318	0.0	-1.39985677211214	0.5953024607956869	0.0	-1.3985116301823575	0.5925756709292809	0.0	-1.395809464401659	0.5925769196676033	0.0	-1.396601431827822	0.5891815748294518	0.0	-1.3998268976668702	0.5847240432244685	0.0	-1.3997539596574282	0.578845088154843	0.0	-1.3997853961767175	0.574245304825343	0.0	-1.403497753055062	0.5726783293100177	0.0	-1.4099841246258162	0.5738998567856848	0.0	-1.4160473061893728	0.5789322508016943	0.0	-1.4224950897144184	0.5874546254309148	0.0	-1.4102363408567944	0.5870393080481519	0.0	-1.402866721902148	0.5870655446079761	0.0	-1.3997305672170186	0.5868095046834406	0.0	-1.39981036502731	0.5847268682589858	0.0	-1.4007834603249705	0.5820591496364044	0.0	-1.4042991274338892	0.5810756287466199	0.0	-1.4113920786692054	0.5817389650355469	0.0	-1.2777718079255649	0.0072029372071973265	0.0301	-1.5343279293555898	0.4158967851278628	0.0008
56	1.1217582417582417	-1.3251086964008076	-0.0135175036963402	0.0301	-0.8810801333145541	-0.07507859727788278	0.129	-0.7648735784099989	-0.3968611832776623	0.023	-0.5710454241986123	-0.4745720002398169	0.2179	-0.709281500545869	-0.49524751657215044	0.1804	-0.7746592745023766	-0.4181974730638683	-0.0119	-1.2556377512734085	0.029241456834932077	0.0301	-0.8864432734833045	-0.03258535587768965	0.129	-0.8900557504747938	-0.3741528777062954	0.023	-0.6311625498094585	-0.3939743593181395	0.2179	-0.6197015216156936	-0.39710552315458786	0.1804	-1.0852328188806202	-0.4075627973668785	-0.0119	-1.3886169461870483	0.6187310013856273	0.1076	-1.4230001481233776	0.6582237812432141	0.0702	-1.404622536482496	0.6582302555952108	0.0702	-1.5466590979695929	0.6410929727181299	0.0	-1.5150140601508348	0.6387959715825785	0.0	-1.6056805028448204	0.41476695096561894	-0.01275	-1.5928887098603768	0.11884141696278336	0.0702	-1.3529539552355148	0.08672004920269404	0.1076	-1.3325663228436195	0.11083732958562706	0.0	-1.3070196469029407	0.128039499147066	0.0106	-1.2836018496729218	0.1416516622523377	0.0	-1.258616998301118	0.13851930620665417	0.0	-1.2916190855502734	0.15653329743450947	-0.0004	-1.2559881017291477	0.1605860217145852	0.0	-1.2348661527552791	0.1503662611905775	0.0	-1.2212715819532425	0.13541730733272517	0.0	-1.2857125093964445	0.14961815988758595	0.0	-1.2471937695787763	0.1527925968872718	0.0	-1.2286514308701142	0.14103995997668456	0.0	-1.2186775448758178	0.129835645967242	0.0	-1.2805415897704158	0.13731554873092394	0.0	-1.2458451365535717	0.14294985903854826	0.0	-1.2301343453409028	0.13276430752905474	0.0	-1.2211646777517755	0.12276853933779573	0.0	-1.2791609604962884	0.1209733288603096	-0.0009	-1.250157995523985	0.1286918418712779	0.0	-1.2360675181247214	0.1223920626097619	0.0	-1.2292547286767008	0.11499308075126365	0.0	-1.4918034610667057	0.4233826390567954	-0.01275	-1.3068747113906047	0.14586486758706899	0.0702	-1.05525667564372	0.10663277345955406	0.1076	-1.0348809430959542	0.11459928201787896	0.0	-1.020506997170276	0.1218475868752492	0.0106	-0.999151769686015	0.12040005767295232	0.0	-0.9763233174337769	0.111995487738507	0.0	-0.9890497272344397	0.1433094811807975	-0.0004	-0.9570259017344477	0.12899038003151797	0.0	-0.9466498602939512	0.11538353607956488	0.0	-0.942202375085119	0.09978477785348507	0.0	-0.9871981374981693	0.13085403663442555	0.0	-0.9572424025814968	0.1192322414049558	0.0	-0.9502498247142949	0.10865658844935756	0.0	-0.9496237280964281	0.09605287764674522	0.0	-0.9866650399665176	0.1200018930204817	0.0	-0.9619534143912717	0.11163703841842545	0.0	-0.9551139202705966	0.10359167226081685	0.0	-0.9545042839685103	0.09386115881182339	0.0	-0.986709977441997	0.10969246719722321	-0.0009	-0.9708381927190887	0.09741724522065442	0.0	-0.965126120159784	0.09531777305821032	0.0	-0.9630837254279028	0.0905204610428756	0.0	-1.5229719908312442	0.6653287178640832	0.0	-1.522210832680614	0.6455501396021589	0.0	-1.5174926739499577	0.6257389381278701	0.0	-1.513327294107584	0.6061284987107407	0.0	-1.5034256208362284	0.5863817036127303	0.0	-1.4912409121929304	0.5705071349726929	0.0	-1.474527007134093	0.5567071517620017	0.0	-1.4563832153511918	0.5465406983027729	0.0	-1.439101090245806	0.5406794112402968	0.0	-1.424426030651715	0.5418105747539848	0.0	-1.418779238613122	0.5543640924414163	0.0	-1.4159855958071625	0.5712512420418029	0.0	-1.4121517464811815	0.5895211628862091	0.0	-1.410914517527627	0.6089293151155082	0.0	-1.4117091588827897	0.6283187495541575	0.0	-1.4143861740066652	0.6493945948207427	0.0	-1.4156624652754033	0.6708559614115664	0.0	-1.4529463359302917	0.6805265835601833	0.0	-1.4441301318177442	0.6854965756596666	0.0	-1.433540307525513	0.6871784817736101	0.0	-1.4248486543193624	0.6867415365172865	0.0	-1.4182699751014625	0.6848444421554035	0.0	-1.410682216590859	0.6840764700468446	0.0	-1.4089321516573132	0.6845232881839336	0.0	-1.4089290122949614	0.6848471561817703	0.0	-1.407573113561214	0.6841599595837461	0.0	-1.4075338177987649	0.682694111181303	0.0	-1.4155876316879223	0.6651440698601097	0.0	-1.4082997592655573	0.6516811153432026	0.0	-1.4017199255682151	0.639904449399239	0.0	-1.394317994680629	0.6298442845552498	0.0	-1.4175524084535889	0.6187313896908546	0.0	-1.414511274463485	0.6166804502172369	0.0	-1.409212040526637	0.6155740747837197	0.0	-1.403107705243996	0.6172953081653194	0.0	-1.3989316499654285	0.6197524809428193	0.0	-1.444957567528568	0.6645364456369455	0.0	-1.4377874814529295	0.6670177272886234	0.0	-1.4321381756136347	0.6683423777069288	0.0	-1.4292791678774193	0.6640058313688469	0.0	-1.4335107718335318	0.6608931138341593	0.0	-1.439076454075171	0.6614947912789348	0.0	-1.414507241964252	0.665125201742495	0.0	-1.4128985623289676	0.6670584896414212	0.0	-1.4113659569622086	0.6670393214049217	0.0	-1.4113690646257144	0.6652215081001912	0.0	-1.412125302845372	0.6636249387719488	0.0	-1.4129075458730145	0.663657467280281	0.0	-1.4347226091304108	0.5897120828989085	0.0	-1.4220311292256018	0.5933441894146636	0.0	-1.4104661167110146	0.5974642300256015	0.0	-1.4089844005011307	0.5947092137180796	0.0	-1.4066466603821892	0.5947096541906528	0.0	-1.4070803072345905	0.5911591513340885	0.0	-1.410199157904484	0.5862661031863885	0.0	-1.410022383930534	0.5812568441394218	0.0	-1.410132524602303	0.5766783942422513	0.0	-1.413949941113745	0.5747206029483967	0.0	-1.4202966000321335	0.5761714743592419	0.0	-1.4268208676536944	0.5815315054420345	0.0	-1.433109240525494	0.5897122568630982	0.0	-1.4206820059818455	0.5892084974037904	0.0	-1.4131611781481717	0.5891008356308511	0.0	-1.4101328030006153	0.5887350432831733	0.0	-1.4101671629655808	0.586267730917257	0.0	-1.4115041843109744	0.5843239760643044	0.0	-1.414314742088205	0.5829087030563406	0.0	-1.422026301186537	0.5839742406673722	0.0	-1.290372108566933	0.007861216905220961	0.0301	-1.5466461088084758	0.4185076705650424	0.0008
57	1.141789638932496	-1.3406692852226674	-0.013762282855911478	0.0301	-0.8991072035650797	-0.07469758825168284	0.129	-0.8248452807440524	-0.39309415395166764	0.023	-0.6201113646782487	-0.4746810441376407	0.2179	-0.8109122283515059	-0.49244243268355575	0.1804	-0.8375358089401164	-0.4121158133157545	-0.0119	-1.2696303990410664	0.03065947428151317	0.0301	-0.9063301278292462	-0.03454415031921359	0.129	-0.9077192692248132	-0.3717632916171176	0.023	-0.638634988332527	-0.3933436397865234	0.2179	-0.6410334370258839	-0.39765281104400446	0.1804	-1.0934447030082508	-0.40250990632578937	-0.0119	-1.3992832949925031	0.6219471015970555	0.1076	-1.4336165305113118	0.6610929772409553	0.0702	-1.4147755386629248	0.6615104199025729	0.0702	-1.5561985733250498	0.6443697174170926	0.0	-1.5250707432370332	0.6423520595302666	0.0	-1.618067160052569	0.41818995288773386	-0.01275	-1.6084978900614726	0.12015448092201893	0.0702	-1.3638365743979797	0.08477855181436957	0.1076	-1.3423191915408927	0.10819669955906953	0.0	-1.3170210047590234	0.1251831421885339	0.0106	-1.2933163432330326	0.138435120455028	0.0	-1.2679634872040453	0.1359775630389283	0.0	-1.2999578002250818	0.15305107576730004	-0.0004	-1.2647785232051396	0.15665324914210624	0.0	-1.2441873643416113	0.14695597619462855	0.0	-1.2323143826958343	0.1323948475505168	0.0	-1.2941276497265546	0.14550319184716518	0.0	-1.256587383345617	0.14918484967700701	0.0	-1.2397428014701202	0.1375647396658144	0.0	-1.2302728948083648	0.12651693661533114	0.0	-1.289121399983629	0.13356295835416726	0.0	-1.2561770376239905	0.13947896143214075	0.0	-1.2413621266873938	0.12903498389838383	0.0	-1.2337435797306862	0.11935832035204914	0.0	-1.288390862820952	0.11726104455343807	-0.0009	-1.2602004826129565	0.12478006422092364	0.0	-1.248056226415131	0.11867514042942727	0.0	-1.2421821280774665	0.11181141587621196	0.0	-1.5042592356896372	0.4260218693577316	-0.01275	-1.3174647764329357	0.14578366658964342	0.0702	-1.0648455576035172	0.1050126053086144	0.1076	-1.0459787403383103	0.11355576812123501	0.0	-1.0316756399181495	0.12206149196848902	0.0106	-1.0107275121073012	0.12113195204902853	0.0	-0.9871679792391902	0.11188866556651521	0.0	-1.000337259234709	0.14357645766317043	-0.0004	-0.9683241011057669	0.12898562601570418	0.0	-0.9583260495919058	0.11600146111884069	0.0	-0.9548783584807472	0.09979598733751777	0.0	-0.9978956456105723	0.13034314290904947	0.0	-0.9682345300801078	0.11865241093754422	0.0	-0.961770380077409	0.10834123404484075	0.0	-0.9613517817775401	0.09567461587312363	0.0	-0.9975126404413144	0.11880527055810068	0.0	-0.9726718936095003	0.11068111453373523	0.0	-0.9662527963647144	0.10263516283590567	0.0	-0.9666660784920348	0.09306547436441634	0.0	-0.9974539124154739	0.10768903225235052	-0.0009	-0.9816641667288709	0.09562379175093394	0.0	-0.9764778526626591	0.09449319675712557	0.0	-0.9748811941379525	0.09029702401463013	0.0	-1.5328654510157582	0.6684379363638506	0.0	-1.5318803279659172	0.6478965463061404	0.0	-1.5277584637161559	0.6287548923719676	0.0	-1.5231778674810261	0.6091331538710021	0.0	-1.5132744734309518	0.5897257030675179	0.0	-1.500723343010504	0.5737783021741699	0.0	-1.4847668580213786	0.5600256178358295	0.0	-1.466575131331697	0.5499581516147106	0.0	-1.4491935961804452	0.5440993798295946	0.0	-1.4350779316323437	0.5451866316435289	0.0	-1.429116409551968	0.5574096198094078	0.0	-1.4263642917845196	0.5742354712429272	0.0	-1.4224417349280858	0.5924909831851057	0.0	-1.421053124020831	0.6119463262057531	0.0	-1.421976078056127	0.6316157790396081	0.0	-1.4248501548475445	0.6521813345954832	0.0	-1.4254377296580887	0.6738952678431339	0.0	-1.4634631473822541	0.6830609752316391	0.0	-1.4543984837840502	0.6877862256493275	0.0	-1.4438862826523808	0.6898373660159212	0.0	-1.4355453906358264	0.6895533039176129	0.0	-1.4286483887030026	0.6872521429810869	0.0	-1.4214114039744516	0.6867724295042351	0.0	-1.419429898725476	0.6873722338939308	0.0	-1.4197308097633907	0.687440182989783	0.0	-1.4181707714160119	0.6867805961415075	0.0	-1.4181814278674505	0.6852059804775484	0.0	-1.4260661134526147	0.66776743822139	0.0	-1.4186826283868883	0.6549089301410317	0.0	-1.412414404080378	0.643057283766335	0.0	-1.4047104212287924	0.6329847374785763	0.0	-1.4281237298253608	0.621758428338729	0.0	-1.424972477750982	0.620114078089037	0.0	-1.4195987060453188	0.6185503730629607	0.0	-1.4132668494478955	0.6206840651567649	0.0	-1.4093686354517843	0.6228996687376515	0.0	-1.4551313787957891	0.6672660061944876	0.0	-1.4482604235178942	0.6697364330137017	0.0	-1.4425794443408204	0.6712485128658263	0.0	-1.4398118510058875	0.6667349693096115	0.0	-1.4436055256648073	0.6636067432604108	0.0	-1.4494179369101428	0.6642474728526694	0.0	-1.4248624046435294	0.667794222985804	0.0	-1.4232883518151918	0.6698653619918085	0.0	-1.4221078100952627	0.6697692902795187	0.0	-1.4220971746107314	0.6680215531057184	0.0	-1.4225639782737218	0.6664612050450909	0.0	-1.4231988169362177	0.666421896561198	0.0	-1.4449860815449942	0.5927346477553787	0.0	-1.4324765061582	0.5959879070348314	0.0	-1.4209123273576172	0.6002887218434322	0.0	-1.4191144577884427	0.5978572327001465	0.0	-1.4171545402491257	0.5978572683640043	0.0	-1.417253960520141	0.5940140596967234	0.0	-1.4203460283582903	0.5889189707935327	0.0	-1.4199182254832305	0.5843117950619348	0.0	-1.4202708896404275	0.5797611926453534	0.0	-1.4239519392755815	0.5774789505986064	0.0	-1.4303424175215165	0.5792384664405623	0.0	-1.4371875895414405	0.5848174995829526	0.0	-1.4432462438400986	0.5927341814600326	0.0	-1.4307676315302875	0.5924308102007911	0.0	-1.4229278471810805	0.5920060752860069	0.0	-1.4202901812012894	0.5914477616725525	0.0	-1.4202990944945058	0.5889196713991169	0.0	-1.4216646665474282	0.5873333682194811	0.0	-1.424032941921988	0.5857531151363553	0.0	-1.432439951478668	0.5870713288158869	0.0	-1.3051466834636047	0.008423551993450875	0.0301	-1.559050515408128	0.42153468530194665	0.0008
